<svg width="96" height="31" viewBox="0 0 96 31" fill="none" xmlns="http://www.w3.org/2000/svg">
<path d="M30.0004 6.3999C25.4004 6.3999 21.9004 9.6999 21.9004 14.3999C21.9004 19.0999 25.4004 22.3999 30.0004 22.3999C32.2004 22.3999 33.9004 21.3999 34.6004 20.5999V22.1999H38.2004V6.5999H34.6004V8.1999C33.9004 7.3999 32.1004 6.3999 30.0004 6.3999ZM30.1004 19.0999C27.4004 19.0999 25.4004 16.9999 25.4004 14.3999C25.4004 11.7999 27.5004 9.6999 30.1004 9.6999C32.7004 9.6999 34.7004 11.7999 34.7004 14.3999C34.7004 16.9999 32.7004 19.0999 30.1004 19.0999ZM61.0004 6.3999C58.9004 6.3999 57.3004 7.1999 56.3004 8.1999V6.5999H52.8004V30.3999L56.3004 29.9999V20.4999C57.3004 21.5999 59.0004 22.2999 61.0004 22.2999C65.8004 22.2999 69.0004 19.1999 69.0004 14.2999C69.0004 9.4999 65.8004 6.3999 61.0004 6.3999ZM60.9004 19.0999C58.1004 19.0999 56.3004 17.0999 56.3004 14.3999C56.3004 11.6999 58.1004 9.6999 60.9004 9.6999C63.7004 9.6999 65.6004 11.6999 65.6004 14.3999C65.5004 17.0999 63.7004 19.0999 60.9004 19.0999ZM96.0004 6.3999C93.8004 6.3999 92.6004 7.1999 91.9004 8.1999V6.5999H88.4004V22.1999H91.9004V13.5999C91.9004 11.2999 93.5004 9.6999 95.7004 9.6999H96.0004V6.3999ZM78.4004 6.3999C73.8004 6.3999 70.2004 9.9999 70.2004 14.3999C70.2004 18.7999 73.8004 22.3999 78.4004 22.3999C82.2004 22.3999 85.3004 20.2999 86.3004 17.4999H82.1004C81.6004 18.4999 80.3004 19.1999 78.4004 19.1999C76.1004 19.1999 74.3004 17.5999 73.9004 15.5999H86.4004C86.5004 15.1999 86.5004 14.7999 86.5004 14.3999C86.5004 9.9999 82.9004 6.3999 78.4004 6.3999ZM74.1004 12.4999C74.6004 10.8999 76.3004 9.5999 78.4004 9.5999C80.4004 9.5999 82.2004 10.8999 82.7004 12.4999H74.1004ZM45.7004 9.4999C45.0004 9.4999 44.2004 9.7999 44.2004 10.6999C44.2004 11.6999 45.2004 11.9999 47.1004 12.6999C49.7004 13.6999 51.0004 14.8999 51.0004 17.2999C51.0004 19.7999 48.9004 22.3999 45.3004 22.3999C41.7004 22.3999 39.8004 19.6999 39.7004 17.4999H43.1004C43.3004 18.4999 44.1004 19.2999 45.3004 19.2999C46.6004 19.2999 47.4004 18.3999 47.4004 17.3999C47.4004 16.6999 47.1004 15.8999 44.9004 15.2999C42.5004 14.6999 40.8004 13.3999 40.8004 10.7999C40.8004 8.3999 42.9004 6.4999 45.6004 6.4999C48.0004 6.4999 49.5004 8.1999 50.2004 9.2999L47.3004 10.5999C46.9004 9.7999 46.3004 9.4999 45.7004 9.4999Z" fill="white"/>
<path d="M11.3 0C4.9 0 0 5 0 11.2C0 17.4 4.9 22.4 11.3 22.4C15.4 22.4 19.2 20.2 20.9 17.1L17.6 15.3C16.3 17.6 14.1 18.9 11.3 18.9C9.3 18.9 7.3 18.1 6 16.7C4.6 15.2 3.8 13.3 3.8 11.3C3.8 9.3 4.6 7.4 6 5.9C7.3 4.5 9.2 3.7 11.3 3.7C13.5 3.7 14.8 4.4 15.7 5.1C16.7 5.8 17.7 6.5 19.4 6.5C22.5 6.5 23.9 4 24.2 2.7L20.7 2C20.7 2.1 20.4 3.1 19.4 3.1C18.9 3.1 18.6 2.9 17.9 2.4C16.6 1.2 14.9 0 11.3 0Z" fill="white"/>
</svg>
