<svg width="100" height="20" viewBox="0 0 100 20" fill="none" xmlns="http://www.w3.org/2000/svg">
<g clip-path="url(#clip0_546_9658)">
<path d="M34.7671 14.6027V16.9041H25.2329V14.6027H28.6575V5.39726H25.2329V3.09589H34.7671V5.39726H31.3425V14.6027H34.7671ZM18.5753 3.09589H15.9452L14.0548 14.0274H14.0274L11.8356 3.89041C11.6986 3.20548 11.4795 3.0411 10.8219 3.0411H9.36986C8.73973 3.0411 8.49315 3.20548 8.35616 3.89041L6.16438 14.0274H6.10959L4.24658 3.09589H1.42466L4.13699 16.2192C4.24658 16.7945 4.46575 16.9315 5.09589 16.9315H6.9589C7.58904 16.9315 7.80822 16.7945 7.91781 16.1918L9.9726 6.68493H10.0274L12.0822 16.1918C12.2192 16.7945 12.411 16.9315 13.0411 16.9315H14.8767C15.5342 16.9315 15.726 16.7945 15.8356 16.2192L18.5753 3.09589ZM20 20H0V0H20V20ZM52.9863 13.3699C52.9964 14.5519 53.0787 15.7322 53.2329 16.9041H55.9726C55.8904 16.1644 55.8082 14.9315 55.7534 13.1781C55.6986 11.4247 55.0411 10.8219 53.6164 10.5479V10.4932C55.2055 10.2466 55.8904 9.47945 55.8904 7.0411C55.8904 5.0137 55.5616 4.27397 55.0137 3.72603C54.4658 3.17808 53.8904 3.12329 52.8219 3.12329H44.411V16.9041H47.2603V11.5342H51.2055C52.0274 11.5342 52.3562 11.589 52.5753 11.8082C52.7945 12.0274 52.9589 12.274 52.9863 13.3699ZM47.2603 9.28767V5.45205H51.7808C52.411 5.45205 52.6027 5.50685 52.7123 5.61644C52.8219 5.72603 53.0959 6.10959 53.0959 7.31507C53.0959 8.52055 52.9041 8.90411 52.6849 9.09589C52.4658 9.28767 52.3836 9.28767 51.7534 9.28767H47.2603ZM60 20H40V0H60V20ZM84.411 3.09589V16.9041H91.2055C93.1507 16.9041 94.2192 16.6301 95.0685 15.8904C95.9178 15.1507 96.5205 13.4247 96.5205 10.0274C96.5205 6.63014 96.0548 5.0137 95.0685 4.16438C94.0822 3.31507 93.1781 3.15068 91.2055 3.15068H84.411V3.09589ZM93.6986 10C93.6986 12.9589 93.4521 13.726 92.9315 14.137C92.411 14.5479 92.0274 14.5479 91.0137 14.5479H87.2603V5.45205H91.0137C92.0548 5.45205 92.4932 5.50685 92.9315 5.86301C93.3699 6.21918 93.6986 7.0411 93.6986 10.0274M100 20H80V0H100V20ZM63.6712 5.39726V3.09589H75.4247V7.53425H72.9589V5.39726H68.1918V8.68493H71.9726V10.9041H68.1918V14.6027H73.0685V12.1918H75.5616V16.9041H63.6712V14.6027H65.5342V5.39726H63.6712Z" fill="white"/>
</g>
<defs>
<clipPath id="clip0_546_9658">
<rect width="100" height="20" fill="white"/>
</clipPath>
</defs>
</svg>
