<svg width="100" height="27" viewBox="0 0 100 27" fill="none" xmlns="http://www.w3.org/2000/svg">
<path d="M25.6459 23.5202V10.6362H21.2502V11.9379C21.2502 12.4078 21.5991 12.5158 21.7767 12.6618C22.0583 12.9539 22.0889 13.2397 22.0889 13.6016V23.444C21.5991 24.0219 21.0787 24.3521 20.4849 24.3521C19.4747 24.3521 19.2972 23.444 19.2972 21.6406V10.6362H14.9382V11.9379C14.9382 12.4078 15.2871 12.5158 15.4647 12.6618C15.7463 12.9539 15.7769 13.2397 15.7769 13.6016V21.2406C15.7769 25.0379 16.1259 26.9936 18.8135 26.9936C20.0686 26.9936 21.5257 26.2761 22.4134 24.7331C22.4134 24.7331 22.744 26.8603 25.4378 26.8603C26.454 26.8603 27.2744 25.7872 27.2744 25.7872V24.7839C27.2744 24.7839 26.9928 24.8283 26.754 24.8283C26.4112 24.8283 25.7561 24.5235 25.6459 23.5202ZM36.1026 10.3695C34.8108 10.3695 33.4884 11.4172 32.6497 13.373V10.6362H28.358V11.8871C28.358 12.357 28.707 12.465 28.8784 12.611C29.1907 12.9349 29.2274 13.265 29.2274 13.6968V23.6853C29.2274 24.1171 29.1907 24.4473 28.8784 24.7712C28.7009 24.9553 28.358 25.0633 28.358 25.5332V26.619H33.8007V25.5332C33.8007 24.9553 33.415 24.9553 33.1701 24.7712C32.7844 24.4791 32.7538 24.1552 32.7538 23.6853V20.3198C32.7538 16.6242 32.8579 14.3636 34.6823 13.2079C34.8476 13.8873 35.4537 14.4842 36.4638 14.4842C37.5169 14.4842 37.9332 13.7222 38.0862 13.1444C38.0862 13.1381 38.0923 13.1317 38.0923 13.1254C38.1046 13.0873 38.1107 13.0428 38.1168 13.0047C38.1229 12.9793 38.1291 12.9603 38.1291 12.9349C38.1536 12.8015 38.1597 12.6872 38.1597 12.611C38.1597 12.5856 38.1597 12.5602 38.1597 12.5348C38.1658 11.2013 37.3271 10.3695 36.1026 10.3695ZM6.77119 0C2.76115 0 0 4.70532 0 13.5C0 22.2566 2.75503 27 6.77119 27C10.7873 27 13.5056 22.2566 13.5056 13.5C13.5056 4.73707 10.7873 0 6.77119 0ZM9.0425 15.9257C9.0425 22.0407 8.7609 24.7902 6.77119 24.7902C4.78147 24.7902 4.46923 22.0407 4.46923 15.9257V11.0426C4.46923 4.92756 4.78147 2.20978 6.77119 2.20978C8.7609 2.20978 9.0425 4.92756 9.0425 11.0426V15.9257ZM57.1813 1.19379C55.3998 0.323848 53.306 0.323849 50.7286 0.323849H47.2756V1.33984C47.2756 1.91769 47.5572 1.95579 47.7654 2.13358C48.2184 2.53363 48.2552 2.89558 48.2552 3.28928V23.2916C48.2552 23.9076 48.2185 24.2695 47.6613 24.7394C47.3797 24.9553 47.0675 24.9934 47.0675 25.5713V26.5873H53.4529V25.5713C53.4529 25.0315 53.104 24.9553 52.8223 24.7394C52.2652 24.3076 52.1917 24.0155 52.1917 23.5456V14.5096H52.3326C57.8487 14.5096 60.5302 12.1221 60.5302 7.20085C60.5302 4.41322 59.2751 2.20343 57.1813 1.19379ZM52.5407 12.338H52.1917V2.49553H52.5407C55.4732 2.49553 56.3793 3.90522 56.3793 7.41674C56.3793 10.9283 55.4732 12.338 52.5407 12.338ZM65.7341 24.7394C65.4525 24.4473 65.4218 24.1616 65.4218 23.7996V0.323849H61.0261V1.51764C61.0261 1.98753 61.3751 2.13358 61.5465 2.27963C61.8281 2.57173 61.8587 2.85748 61.8587 3.21943V23.7933C61.8587 24.1552 61.822 24.4473 61.5465 24.7331C61.3751 24.9172 61.0261 25.0252 61.0261 25.4951V26.5809H66.2606V25.4951C66.2545 25.0633 65.9055 24.9172 65.7341 24.7394ZM96.094 24.5362C94.3859 24.5362 94.0003 23.0503 94.0003 19.7611V18.7832H100C100 13.0619 98.5674 10.3123 95.2186 10.3123C92.182 10.3123 90.2902 13.5317 90.2902 19.2848C90.2902 24.2822 92.0779 26.9936 95.3226 26.9936C98.0103 26.9936 99.5102 25.3681 99.8959 22.0343L98.1144 21.7105C97.9123 23.5583 97.1777 24.5362 96.094 24.5362ZM94.0003 15.6717C94.0003 13.3539 94.5574 12.1221 95.4328 12.1221C96.443 12.1221 96.8654 13.3539 96.8654 15.8876V16.7575H94.0064V15.6717H94.0003ZM77.2193 23.1138L77.2132 23.1202V16.1035C77.2132 14.4779 77.2132 13.1698 76.4785 12.1221C75.6765 10.9664 74.2807 10.3123 72.4991 10.3123C69.7441 10.3123 68.1401 11.5442 68.1401 13.3857C68.1401 14.5795 68.8013 15.3034 69.989 15.3034C71.0359 15.3034 71.6665 14.6493 71.6665 13.7095C71.6665 13.3476 71.5624 12.9158 71.3542 12.3697C71.6359 12.2237 71.9114 12.1538 72.2236 12.1538C73.4419 12.1538 73.6562 13.1698 73.6562 15.1954V16.1352C69.5727 17.4751 67.6871 19.4309 67.6871 22.7201C67.6871 25.3617 69.0156 26.9936 70.9318 26.9936C72.2297 26.9936 73.4235 26.3015 74.1949 25.2665C74.4888 25.8888 75.2051 26.7396 76.9132 26.7396C78.107 26.7396 78.8539 25.6665 78.8539 25.6665V24.7839C78.8539 24.7839 78.5723 24.8283 78.3335 24.8283C77.9723 24.8283 77.2193 24.3457 77.2193 23.1138ZM73.6562 22.1486C73.6562 23.5266 73.1358 24.2822 72.2971 24.2822C71.4583 24.2822 70.9012 23.5583 70.9012 22.2185C70.9012 20.1166 71.7706 18.853 73.6562 18.199V22.1486ZM85.5149 24.4283C83.9782 24.4283 83.2129 22.9424 83.2129 19.9071V17.5894C83.2129 13.9 83.77 12.1221 85.4108 12.1221C85.9373 12.1221 86.3169 12.338 86.525 12.6618C86.0046 13.0238 85.723 13.5317 85.723 14.1794C85.723 15.1573 86.3842 15.8431 87.4005 15.8431C88.5515 15.8431 89.3229 15.0113 89.3229 13.7794C89.3229 11.7919 87.7189 10.306 85.2761 10.306C81.7191 10.306 79.411 13.5254 79.411 19.2086C79.411 24.1679 81.4681 26.9873 84.6822 26.9873C87.4066 26.9873 88.9372 25.2474 89.3596 21.7422L87.6515 21.3803C87.4005 23.4504 86.7393 24.4283 85.5149 24.4283Z" fill="white"/>
</svg>
