<svg id="Group_6" data-name="Group 6" xmlns="http://www.w3.org/2000/svg" width="2400" height="1600" viewBox="0 0 2400 1600">
  <circle id="Ellipse_13" data-name="Ellipse 13" cx="62.247" cy="62.247" r="62.247" transform="translate(1821.059 1030.443)" fill="#a68f78"/>
  <circle id="Ellipse_14" data-name="Ellipse 14" cx="62.247" cy="62.247" r="62.247" transform="translate(1507.124 456.171)" fill="#ffc219"/>
  <circle id="Ellipse_15" data-name="Ellipse 15" cx="62.247" cy="62.247" r="62.247" transform="translate(896.015 803.515)" fill="#00347b"/>
  <circle id="Ellipse_16" data-name="Ellipse 16" cx="62.247" cy="62.247" r="62.247" transform="translate(645.261 469.643)" fill="#f6bfce"/>
  <circle id="Ellipse_17" data-name="Ellipse 17" cx="62.247" cy="62.247" r="62.247" transform="translate(0 1037.942)" fill="#818086"/>
  <circle id="Ellipse_18" data-name="Ellipse 18" cx="62.247" cy="62.247" r="62.247" transform="translate(490.039 1475.506)" fill="#184529"/>
  <circle id="Ellipse_19" data-name="Ellipse 19" cx="62.247" cy="62.247" r="62.247" transform="translate(2275.506 124.494)" fill="#e50019"/>
  <circle id="Ellipse_20" data-name="Ellipse 20" cx="62.247" cy="62.247" r="62.247" transform="translate(1936.031 0)" fill="#308d58"/>
  <circle id="Ellipse_21" data-name="Ellipse 21" cx="62.247" cy="62.247" r="62.247" transform="translate(371.792 706.459)" fill="#308d58"/>
  <circle id="Ellipse_22" data-name="Ellipse 22" cx="62.247" cy="62.247" r="62.247" transform="translate(1983.801 1355.176)" fill="#0f1f53"/>
  <circle id="Ellipse_23" data-name="Ellipse 23" cx="62.247" cy="62.247" r="62.247" transform="translate(1169.06 1129.924)" fill="#97c5e4"/>
  <circle id="Ellipse_24" data-name="Ellipse 24" cx="62.247" cy="62.247" r="62.247" transform="translate(538.624 263.285)" fill="#e50019"/>
</svg>
